# xmcd
#
# Track frame offsets: 
#        150
#        14643
#        27286
#        42615
#        59206
#        69665
#        86107
#        99032
#        113423
#        128527
#        144930
#        163096
#        178153
#
# Disc length: 2550 seconds
#
# Revision: 0
# Processed by: cddbd v1.5.2PL0 Copyright (c) Steve Scherf et al.
# Submitted via: ExactAudioCopy v1.3
#
DISCID=b209f40d
DTITLE=Gord Bamford - Honkytonks And Heartaches
DYEAR=2007
DGENRE=Country
TTITLE0=Blame It On That Red Dress
TTITLE1=Postcard From Pasadena
TTITLE2=Blue Collar Palace
TTITLE3=Little Guy
TTITLE4=Stayed 'Til Two
TTITLE5=I Said Nothing
TTITLE6=Drinkin' Buddy
TTITLE7=Come Over Here
TTITLE8=In The Palm Of Your Hands
TTITLE9=Hurtin' Me Back
TTITLE10=Honkytonks And Heartaches
TTITLE11=Things Go Better With Love
TTITLE12=Years Ago Last Night
EXTD=
EXTT0=
EXTT1=
EXTT2=
EXTT3=
EXTT4=
EXTT5=
EXTT6=
EXTT7=
EXTT8=
EXTT9=
EXTT10=
EXTT11=
EXTT12=
PLAYORDER=
